<svg xmlns="http://www.w3.org/2000/svg" width="256" height="256"><path fill="#1976D2" fill-opacity=".016" fill-rule="evenodd" d="M0 128.004v128.004l128.25-.254 128.25-.254.254-127.75L257.008 0H0v128.004m.485.496c0 70.4.119 99.053.265 63.672.146-35.38.146-92.98 0-128C.604 29.153.485 58.1.485 128.5"/><path fill="#1976D2" fill-opacity=".366" fill-rule="evenodd" d="M36 96.254V173h32V98.513L98 128.5l30 29.987 30-29.987 30-29.987V173h32V19.508L174 65.5l-46 45.992L82 65.5 36 19.508v76.746M36 220v16h184v-32H36v16"/><path fill="#1976D2" fill-opacity=".472" fill-rule="evenodd" d="M36 96.254V172h32V97.513L98 127.5l30 29.987 30-29.987 30-29.987V172h32V20.508L174 66.5l-46 45.992L82 66.5 36 20.508v75.746M36 220v16h184v-32H36v16"/><path fill="#1976D2" fill-opacity=".548" fill-rule="evenodd" d="M36 96.254V172h31v-37c0-20.35.335-37 .744-37s14.134 13.385 30.5 29.744L128 157.487l29.756-29.743C174.122 111.385 187.847 98 188.256 98c.409 0 .744 16.65.744 37v37h31V20.508L174 66.5l-46 45.992L82 66.5 36 20.508v75.746M36 220.5V236h184v-31H36v15.5"/></svg>