<svg xmlns="http://www.w3.org/2000/svg" width="256" height="256"><path fill="#1976D2" fill-opacity=".016" fill-rule="evenodd" d="M0 128.004v128.004l128.25-.254 128.25-.254.254-127.75L257.008 0H0v128.004m.485.496c0 70.4.119 99.053.265 63.672.146-35.38.146-92.98 0-128C.604 29.153.485 58.1.485 128.5"/><path fill="#1976D2" fill-opacity=".191" fill-rule="evenodd" d="M48.977 113.72a39132.891 39132.891 0 0 1-21.094 47.662c-2.661 5.985-4.596 11.273-4.301 11.75.295.477.033.868-.582.868s-.84.45-.5 1c.34.55.19 1-.334 1s-1.211.675-1.528 1.5c-.492 1.283 1.198 1.5 11.69 1.5h12.266l4.25-10.348 4.249-10.348 12.704-.648c6.986-.356 17.653-.648 23.703-.649l11-.001L105 168l4.5 10.994 12.719.003c9.772.002 12.604-.287 12.224-1.247-.272-.687-10.512-23.525-22.755-50.75l-22.26-49.5-12.098-.28-12.097-.28-16.256 36.78M145 128v51h24v-28h21.888l9.26 13.609c5.092 7.486 9.755 13.8 10.361 14.033.606.232 6.583.296 13.281.14l12.18-.282-10.722-15.163c-5.897-8.339-11.122-14.915-11.611-14.613-.501.31-.493-.159.018-1.073.5-.892 2.973-2.932 5.496-4.532 4.541-2.879 9.386-8.244 10.02-11.095.181-.812.917-2.108 1.637-2.879.719-.772 1.07-2.02.781-2.774-.289-.754-.042-1.371.551-1.371.659 0 .825-1.003.428-2.584-.42-1.675-.283-2.358.392-1.941.683.422 1.04-1.801 1.04-6.475 0-4.674-.357-6.897-1.04-6.475-.675.417-.812-.266-.392-1.941.397-1.581.231-2.584-.428-2.584-.593 0-.818-.675-.502-1.5.317-.825.051-1.5-.59-1.5s-.888-.45-.548-1c.34-.55.066-1-.608-1-.674 0-.943-.282-.599-.627 1.988-1.988-6.947-11.625-14.217-15.334C206.422 77.624 201.124 77 172.29 77H145v51m24.585-31.252c-.322.322-.585 8.16-.585 17.419V131h14.04c15.392 0 19.572-1.148 23.815-6.542 4.273-5.434 3.977-16.127-.598-21.565-4.346-5.164-8.174-6.25-22.922-6.504-7.241-.124-13.428.038-13.75.359m-93.245 5.859c-.389 1.041-3.954 9.656-7.923 19.143L61.202 139H92.95l-.865-2.25c-2.492-6.473-14.361-35.306-14.674-35.643-.2-.216-.682.459-1.071 1.5"/><path fill="#1976D2" fill-opacity=".059" fill-rule="evenodd" d="M57 96.705c-4.675 10.733-8.388 19.915-8.25 20.405.137.489-.275.89-.917.89-.641 0-.882.284-.535.631.347.348.102 1.585-.546 2.75-.647 1.166-1.081 2.457-.964 2.869.116.412-.142.75-.575.75-.433 0-.849.787-.924 1.75-.075.963-1.428 4.675-3.006 8.25-1.579 3.575-2.794 7.063-2.702 7.75.093.688.225 9.125.294 18.75.122 17.054.178 17.5 2.219 17.5 1.252 0 2.303-.803 2.616-2 .288-1.1.947-2 1.466-2 .518 0 .664-.45.324-1s-.141-1 .441-1 .963-.338.847-.75c-.117-.412.349-1.762 1.035-3 .686-1.238.894-2.257.462-2.265-.432-.009-.323-.346.243-.75.565-.404 1.871-2.647 2.901-4.985l1.875-4.25H68.07c8.122 0 15.478-.273 16.348-.607 1.242-.476 1.582-2.17 1.582-7.873v-7.266l-5.25-.649c-2.888-.357-8.537-.925-12.555-1.262-4.792-.402-7.145-.997-6.838-1.728l8.181-19.542 7.715-18.426-5.376-10.915C68.919 82.73 66.275 77.677 66 77.505c-.275-.173-4.325 8.467-9 19.2M145 128v51h16V77h-16v51m24-41.697v9.509l14.25.481c16.432.555 17.96.753 19.061 2.478.447.699 1.169 1.05 1.605.781.436-.27 1.837.621 3.113 1.979s1.984 2.469 1.574 2.469c-.41 0 0 .746.912 1.658.912.912 1.471 2.637 1.242 3.833-.258 1.352.088 2.176.914 2.176 1.044 0 1.329-3.091 1.329-14.421v-14.42l-3-1.132c-1.65-.623-3-1.51-3-1.972 0-.462-.47-.55-1.044-.195-.574.355-1.768.044-2.653-.691-1.155-.959-6.224-1.436-17.956-1.689L169 76.794v9.509m-80.99 14.275c-.01 21.575.05 22.223 2.627 28.5 1.45 3.532 2.778 7.547 2.951 8.922.173 1.375 3.639 10.375 7.7 20 4.062 9.625 7.67 18.287 8.018 19.25.554 1.535 2.111 1.75 12.663 1.75 6.617 0 12.034-.338 12.038-.75.013-1.422-33.391-74.751-34.205-75.085-.448-.185-.56-.747-.249-1.25.311-.503.062-.915-.553-.915s-.84-.45-.5-1c.34-.55.141-1-.441-1s-.966-.338-.853-.75c.113-.412-.574-2.213-1.526-4-.952-1.787-1.382-3.257-.956-3.265.427-.009.24-.356-.414-.773-.655-.416-2.338-3.221-3.741-6.234L88.02 78.5l-.01 22.078m122.713 17.472c.766 2.927-5.177 11.804-7.578 11.32-.355-.072-1.77.35-3.145.938-1.375.587-8.912 1.25-16.75 1.474l-14.25.406v19.041l15.75-.501c11.599-.369 17.331-1.002 21.75-2.404l6-1.904.275-15.043c.225-12.298.022-15.044-1.113-15.044-.819 0-1.204.704-.939 1.717m-12.544 41.2c.688 1.238 1.266 2.503 1.286 2.811.019.309 2.454 4.246 5.411 8.75l5.376 8.189H236.079l-5.381-7.25c-2.96-3.988-6.885-8.937-8.724-11l-3.342-3.75H196.93l1.249 2.25"/><path fill="#1976D2" fill-opacity=".141" fill-rule="evenodd" d="M146 128v51h8V77h-8v51m23-41.5V96h9.935c5.464 0 11.089-.439 12.5-.975 2.413-.918 2.565-1.386 2.565-7.918C194 76.52 194.622 77 180.893 77H169v9.5M65 79c0 .55.076 1.112.169 1.25.093.138-.453 1.375-1.212 2.75-.76 1.375-1.286 2.838-1.169 3.25.116.412-.313.75-.955.75-.641 0-.903.264-.581.586.322.322-.84 3.809-2.583 7.75L55.5 102.5l-.178 24.325c-.1 13.647-.632 25.626-1.212 27.288l-1.033 2.964 8.712-.289 8.711-.288.29-7.615.289-7.616-4.663-.526c-5.252-.592-6.814-2.17-5.134-5.189.629-1.13 1.047-2.392.93-2.804-.116-.412.313-.75.955-.75.641 0 .87-.296.508-.658-.362-.362-.218-1.188.32-1.836.538-.648 3.672-7.583 6.965-15.411l5.988-14.233-5.483-10.931C66.3 78.631 65 76.634 65 79m43.605 47.83c-.396.641-.637 10.895-.535 22.788.143 16.661.535 22.512 1.709 25.502l1.524 3.88h11.349c6.241 0 11.348-.193 11.348-.43 0-1.329-14.495-32.192-15.406-32.805-.602-.404-.746-.741-.321-.75.425-.008.086-1.063-.753-2.345-.84-1.281-1.225-2.631-.857-3 .369-.368.119-.67-.555-.67s-.972-.412-.661-.915c.311-.503.134-1.065-.393-1.25-.527-.184-2.031-2.773-3.343-5.753-1.43-3.246-2.674-4.951-3.106-4.252M169 141.022v9.022l12.901-.272c7.096-.15 12.609-.497 12.25-.772-.358-.275-.651-3.871-.651-7.99v-7.49l-3-.642c-1.65-.353-7.162-.695-12.25-.76L169 132v9.022m35.333 27.478c0 .825.375 1.5.834 1.5.458 0 .833.456.833 1.014s1.012 2.577 2.25 4.488l2.25 3.473 12.333.013c6.98.007 12.189-.382 12-.897-.183-.5-2.314-3.2-4.736-6L225.694 167h-10.68c-8.827 0-10.681.26-10.681 1.5"/></svg>